HIERARCHY
ROOT hip
{
  OFFSET 0.0 0.0 0.0
  CHANNELS 6 Xposition Yposition Zposition Zrotation Yrotation Xrotation
  JOINT torso
  {
    OFFSET 0.0 0.0 0.0
    CHANNELS 3 Zrotation Xrotation Yrotation
    JOINT neck
    {
      OFFSET -20.11218299999996 327.95800799999995 66.30578600000035
      CHANNELS 3 Zrotation Xrotation Yrotation
      JOINT head
      {
        OFFSET 18.28939800000012 288.83178699999996 217.81652800000006
        CHANNELS 3 Zrotation Xrotation Yrotation
        End Site
        {
          OFFSET 0.0 0.0 0.0
        }
      }
    }
    JOINT left_collar
    {
      OFFSET -20.11218299999996 327.95800799999995 66.30578600000035
      CHANNELS 3 Zrotation Xrotation Yrotation
      JOINT left_upper_arm
      {
        OFFSET -127.08163400000001 -16.17407199999991 15.44799799999987
        CHANNELS 3 Zrotation Xrotation Yrotation
        JOINT left_forearm
        {
          OFFSET -234.267792 45.78796399999999 109.31286600000021
          CHANNELS 3 Zrotation Xrotation Yrotation
          JOINT left_hand
          {
            OFFSET -259.114014 -33.25433399999997 16.18847699999992
            CHANNELS 3 Zrotation Xrotation Yrotation
            End Site
            {
              OFFSET 0.0 0.0 0.0
            }
          }
        }
      }
    }
    JOINT right_collar
    {
      OFFSET -20.11218299999996 327.95800799999995 66.30578600000035
      CHANNELS 3 Zrotation Xrotation Yrotation
      JOINT right_upper_arm
      {
        OFFSET 164.513184 1.5733030000000099 4.892333999999892
        CHANNELS 3 Zrotation Xrotation Yrotation
        JOINT right_forearm
        {
          OFFSET 260.742027 48.718444999999974 144.35229500000014
          CHANNELS 3 Zrotation Xrotation Yrotation
          JOINT right_hand
          {
            OFFSET 287.85150899999996 -44.57171600000015 13.96813899999961
            CHANNELS 3 Zrotation Xrotation Yrotation
            End Site
            {
              OFFSET 0.0 0.0 0.0
            }
          }
        }
      }
    }
  }
}
MOTION
Frames: 13
Frame Time: 0.01
-237.65492803229404 251.02675572982238 1389.86234296578 2.293356186345996 -0.8667421538454423 0.014945454570913409 -0.13765614466186482 -0.05628438817514445 0.02444272932513722 0.9675791930883476 -18.408447427077977 0.2576769715761136 0.0 0.0 0.0 2.5059287489266 1.1823566857164887 -5.809136466457558 69.4247608513751 25.88138841997839 11.778940773856593 1.5694532114311324 1.4944297555634893 -9.73377833764094 0.0 0.0 0.0 -2.7573588346501614 0.0613797049659541 -1.4201382810626995 -73.9139531287505 37.01708707404618 -5.293551371008491 -9.866250394812868 -0.3632030605462566 -3.477338242631083 0.0 0.0 0.0
-237.64479876900498 251.08657768573295 1389.9056604484538 2.2856222697820154 -0.8338246388250489 -0.002645537861385983 -0.13708804233986874 -0.0704197589997944 0.023477232918218453 0.9594663475044001 -18.433367241321093 0.2655105666633984 0.0 0.0 0.0 2.4820689392472812 1.1800507073277255 -5.821480000201711 69.40373269516364 25.841181622548067 11.844751930841419 1.670007786248895 1.5185160908878785 -9.795258186637017 0.0 0.0 0.0 -2.737610121703873 0.061559655168517614 -1.383712718168719 -73.83824569154822 36.966520441516835 -5.310646356970597 -10.021973222603126 -0.34239450001438293 -3.4040364544199972 0.0 0.0 0.0
-237.63458195230248 251.14850532329 1389.948627100208 2.277237259301852 -0.8058766916859936 -0.02596753685498041 -0.13693461490006215 -0.07868790109707527 0.022948722816166618 0.9506695824607896 -18.45876970575188 0.2739269793474191 0.0 0.0 0.0 2.4604626820650775 1.1773523380140116 -5.828664890216821 69.37922915009854 25.800065805238305 11.909816757394523 1.7737170345611895 1.5434535684347839 -9.858477488279524 0.0 0.0 0.0 -2.7173322425498476 0.0617862320914335 -1.3424373818124151 -73.76074120793147 36.91532579786161 -5.327235225569621 -10.179733044163308 -0.3211881038687566 -3.3301494391855817 0.0 0.0 0.0
-237.62455731395016 251.2124988622441 1389.9920344840277 2.268008388273108 -0.7836911882698598 -0.05572291318104892 -0.1371703093835171 -0.08017323360786587 0.02290717201093643 0.9410864518521103 -18.484687274552048 0.28301162643677846 0.0 0.0 0.0 2.4415731755939403 1.174234670923293 -5.8299550277082295 69.35013778935648 25.757839024269522 11.973706104117227 1.8815065292943152 1.5695048666238145 -9.924186120803721 0.0 0.0 0.0 -2.6965680753183108 0.062064188510346084 -1.295803921661586 -73.68038724432824 36.86330999763136 -5.342677528331236 -10.340260862771231 -0.2994771370860922 -3.255335445529329 0.0 0.0 0.0
-237.6150278298489 251.27848658708083 1390.0368020357148 2.2577582123667788 -0.7679906751876959 -0.09252080082779761 -0.13777303403746066 -0.07404538110302886 0.02339801746185538 0.9306348745116731 -18.51114807963509 0.2928331309973487 0.0 0.0 0.0 2.425813135590966 1.1706777943223325 -5.824720517678881 69.3153896094193 25.71430218458254 12.036023150250173 1.9943004780130362 1.5969373868203225 -9.99312745037911 0.0 0.0 0.0 -2.6753634699087456 0.06239671253238019 -1.2433900073107005 -73.59609090049261 36.8102804639432 -5.356293341074418 -10.504291140489109 -0.27714485186949905 -3.179229979536459 0.0 0.0 0.0
-237.6063158021498 251.3463561586812 1390.0839615013651 2.246333336101446 -0.7594037543878357 -0.13684673761734945 -0.1387259768767655 -0.05959014409318869 0.024460666389889 0.9192587543164215 -18.538171691994183 0.30343851958595586 0.0 0.0 0.0 2.4135294635066 1.166669987354704 -5.8124664530016235 69.27400089835065 25.66927089133467 12.096410650364245 2.1129784544384305 1.626012415116768 -10.06600670849226 0.0 0.0 0.0 -2.65376879014996 0.06278518903806478 -1.1848856033916708 -73.50675639872092 36.756057414702255 -5.367376377709296 -10.67251940162235 -0.25406920817148193 -3.101462444031413 0.0 0.0 0.0
-237.59875889731126 251.4159466838749 1390.1346390563479 2.2336122467976227 -0.7584414532850168 -0.18903422983217544 -0.14001880070871503 -0.036239835375777366 0.026126916071834125 0.9069327336453441 -18.56576534584232 0.31484914535732916 0.0 0.0 0.0 2.4049889667901536 1.162208821970791 -5.792859534069667 69.22511362416792 25.622586567739603 12.154558190381575 2.2383330434673945 1.6569745131996019 -10.143461876244285 0.0 0.0 0.0 -2.631840084513705 0.06322903311245281 -1.1201167309472095 -73.41132281012987 36.700485000310614 -5.375208888388041 -10.845563051909256 -0.23012759527369997 -3.021671927983941 0.0 0.0 0.0
-237.59270622950132 251.48704211880926 1390.1900355737148 2.2195118032313403 -0.7654744596672427 -0.249239620548117 -0.14164804314932816 -0.00360176144620444 0.028419322860721224 0.8936657793278754 -18.59392080356979 0.32705759151454705 0.0 0.0 0.0 2.400365755661115 1.1573021427306076 -5.765751223047143 69.1680326548499 25.574126357871755 12.21020922263444 2.3710303128082546 1.6900415586300477 -10.226038340290453 0.0 0.0 0.0 -2.6096397791277615 0.06372560657741767 -1.0490654923905172 -73.30880047343797 36.643440819969236 -5.379077968065836 -11.023927355078696 -0.20520132528358995 -2.9395213986057307 0.0 0.0 0.0
-237.58851453728133 251.55936659850047 1390.2514054767837 2.203991977860953 -0.780712290504619 -0.31742163790159944 -0.14361659095392618 0.03851652613128129 0.031349575271718756 0.8795033186841283 -18.622611998939536 0.34002579293630236 0.0 0.0 0.0 2.399730952436423 1.1519688839817535 -5.731196068226507 69.10225816681327 25.523811428618465 12.263167511442054 2.51157491227209 1.725395805597687 -10.314168328254498 0.0 0.0 0.0 -2.5872368497084874 0.06427022465030974 -0.9718852317130651 -73.19830468697162 36.58484339629717 -5.378292761199609 -11.207978190177924 -0.17917968924235614 -2.8547096476728697 0.0 0.0 0.0
-237.58654446231412 251.6325822681689 1390.3200345678442 2.187058533892307 -0.804185620277865 -0.3933269454900104 -0.1459321681254962 0.09008670371338799 0.03491694982729987 0.8645276896534156 -18.651793579594415 0.3536845756255175 0.0 0.0 0.0 2.403045313863647 1.1462396679449487 -5.689463866200742 69.0275117523347 25.471613382394512 12.313302552245311 2.6602813798412748 1.7631762793667236 -10.408155850068571 0.0 0.0 0.0 -2.564706471259209 0.06485625510473308 -0.8889098147389101 -73.07908536269983 36.5246573068974 -5.372201969723943 -11.39792281838097 -0.15196339281325275 -2.766980472422067 0.0 0.0 0.0
-237.58715690701615 251.7062901322857 1390.3972171813202 2.168763429726659 -0.8357330935927797 -0.47648290291179324 -0.14860487510829867 0.15084542320376482 0.03910695440000798 0.848856748483847 -18.68140046840689 0.3679347491544765 0.0 0.0 0.0 2.4101552860820044 1.1401571098361587 -5.641044455401306 68.94375498714831 25.41755858823123 12.360553524865006 2.817252929423407 1.803472754978675 -10.508167564480338 0.0 0.0 0.0 -2.5421291638093853 0.06547530724173883 -0.8006561533138868 -72.95055152361296 36.46289579477262 -5.3602110558313285 -11.593799433597676 -0.1234672213361608 -2.6761287299304954 0.0 0.0 0.0
-237.5907094284608 251.78003433139256 1390.4842329714324 2.149202879879939 -0.8749939618394359 -0.5661985569969883 -0.15164393302742674 0.22028784132519852 0.043890287257780644 0.8326405885266962 -18.71134855449296 0.38264979740826105 0.0 0.0 0.0 2.4207929007369686 1.1337757419038912 -5.586644153101058 68.85119953271227 25.361730332869268 12.40493137894595 2.982368636324082 1.8463215065025256 -10.614229668131584 0.0 0.0 0.0 -2.519589461441235 0.06611750279680162 -0.7078192824324232 -72.81228978942207 36.399620811083146 -5.341798556114264 -11.795475771476228 -0.09362182447218766 -2.5820030908466225 0.0 0.0 0.0
-237.5975526197014 251.85331010618722 1390.58232362337 2.128513156339112 -0.9214077827431556 -0.6615746112096198 -0.15505390879959474 0.29767025562393257 0.049222254858077324 0.8160564554057971 -18.741536590895684 0.3976801039792091 0.0 0.0 0.0 2.4345797948636587 1.1271614631376803 -5.52717315889914 68.75030819152825 25.304268783759927 12.446518707296176 3.155279541182675 1.8917029491223467 -10.726230593330142 0.0 0.0 0.0 -2.4971741423552967 0.06677181602860568 -0.61125954868798 -72.66407630805736 36.33494058388638 -5.31653096588344 -12.002656525026483 -0.062374558595851115 -2.4845055240350247 0.0 0.0 0.0
